<svg t="1715831258200" class="icon" viewBox="0 0 2399 1024" version="1.1" xmlns="http://www.w3.org/2000/svg" p-id="1199" id="mx_n_1715831258201" data-spm-anchor-id="a313x.manage_type_mylikes.0.i4.36813a8153zp5d" width="200" height="200">
	<path d="M810.855732 854.509859a24.217449 24.217449 0 1 1 0 48.422098h-133.208767a36.326173 36.326173 0 1 0 0 72.639546h411.728626a24.217449 24.217449 0 1 1 0 48.422097h-411.728626c-46.815707 0-84.76747-37.938963-84.76747-84.73547 0-46.809307 37.951763-84.74827 84.76747-84.748271h133.208767z m612.975369-761.56964l4.492772 44.908519 11.571128 115.647278c164.542972 24.671846 267.070331 69.215567 267.07033 132.901569l-0.025599 0.678396 0.0192 0.927994c1.740789 1.446391 3.27678 3.14238 4.556771 5.036768C1823.399804 412.963819 1907.18808 495.158505 1907.18808 594.236286c0 114.911282-112.127299 205.797114-248.248048 205.797114-15.302304 0-30.43181-1.145593-45.247718-3.398379C1514.524934 934.47736 1354.615534 1023.9936 1174.136662 1023.9936a24.217449 24.217449 0 1 1 0-48.422097c274.084687 0 496.489697-227.21778 496.489697-507.760027 0-6.751958-0.127999-13.484716-0.383998-20.198274-77.349917 57.61884-268.82392 92.146624-496.105699 92.146625-216.478647 0-400.477497-31.321404-484.316973-84.082675-0.0448 2.713583-0.064 5.427166-0.064 8.147149 0 111.135305 36.86377 216.702646 103.909751 303.230105a24.223849 24.223849 0 0 1-38.297361 29.651015c-73.54834-94.930607-114.053687-210.904282-114.053687-332.88112 0-19.327879 1.011194-38.540559 3.027181-57.58044a54.009262 54.009262 0 0 1-3.027181-17.811089v-2.035187c0-64.684396 106.456935-109.976913 275.812676-134.187961l15.020706-115.077681 5.580765-43.23173 33.772589 27.622227 126.501609 103.480954h164.363773l126.514409-103.487353 34.943782-28.575822z m294.750158 351.063406l0.268798 7.731152a577.852388 577.852388 0 0 1-0.287998 40.377347c49.471691 6.579159 87.442653 54.988456 93.509816 115.365679 0.563196 5.612765 0.851195 11.295929 0.851194 17.023894a24.217449 24.217449 0 0 1-48.441297 0c0-4.108774-0.204799-8.179149-0.607996-12.185524-3.871976-38.546959-25.279842-66.866782-49.420491-71.794751a560.220499 560.220499 0 0 1-71.282755 210.603483 252.606421 252.606421 0 0 0 15.769502 0.486397c111.340104 0 199.806751-71.711552 199.806751-157.375016 0-69.183568-57.958038-129.970388-140.159124-150.232661zM974.598709 186.616434l-37.158168 287.9022c71.468353 9.56794 152.395848 14.783908 236.702521 14.783908 85.266667 0 167.070956-5.337567 239.134505-15.116706l-28.671821-286.615808-98.252186 80.383497-6.687958 5.471966h-198.936357l-6.694358-5.471966-99.436178-81.343491z m-223.717002 157.279017c-40.02535 16.095899-59.929225 32.729395-61.074818 43.564527 1.791989 17.875088 48.191699 44.73572 130.571984 65.330792 21.375866 5.343967 44.530922 10.163136 69.164367 14.41271l6.662359-51.590078-0.383998-0.044799 14.527909-111.340104c-64.985194 10.060737-119.800851 23.711852-159.467803 39.666952z m694.190861-38.540559l16.159899 161.419791a954.746033 954.746033 0 0 0 66.668384-13.983913c82.386685-20.588671 128.786395-47.455703 130.571984-65.337192-1.100793-10.342335-19.455878-26.182236-56.754846-41.791738-38.45096-16.083099-92.313023-29.964613-156.645421-40.306948z m-355.696977 52.812469a36.326173 36.326173 0 1 1 0 72.639546 36.326173 36.326173 0 1 1 0-72.639546z m193.752389 0a36.326173 36.326173 0 1 1 0 72.639546 36.326173 36.326173 0 1 1 0-72.639546z" fill="#1296db" p-id="1200"></path>
</svg>
